# xmcd
#
# Track frame offsets: 
#        150
#        25618
#        44551
#        62360
#        82249
#        99329
#        118987
#        139976
#        156166
#        176170
#        193015
#        215522
#        235083
#        253593
#        276709
#
# Disc length: 3917 seconds
#
# Revision: 1
# Processed by: cddbd v1.5.2PL0 Copyright (c) Steve Scherf et al.
# Submitted via: ExactAudioCopyFreeDBPlugin 1.0
#
DISCID=e10f4b0f
DTITLE=群星 - TEST-CD试音极品16CDB
DYEAR=2013
DGENRE=stereo
TTITLE0=结他低泣时
TTITLE1=风的季节
TTITLE2=茉莉花
TTITLE3=雨丝情愁
TTITLE4=只有情永在
TTITLE5=甜言蜜语
TTITLE6=公子多情
TTITLE7=哪里的天空不下雨
TTITLE8=酒红色的心
TTITLE9=旧梦不须记
TTITLE10=再见杨柳
TTITLE11=零时十分
TTITLE12=情义两心坚
TTITLE13=渔舟晚唱
TTITLE14=百花亭之恋
EXTD=
EXTT0=
EXTT1=
EXTT2=
EXTT3=
EXTT4=
EXTT5=
EXTT6=
EXTT7=
EXTT8=
EXTT9=
EXTT10=
EXTT11=
EXTT12=
EXTT13=
EXTT14=
PLAYORDER=
